<?xml version="1.0" encoding="utf-8"?>
<svg viewBox="0 0 300 20" xmlns="http://www.w3.org/2000/svg" preserveAspectRatio="xMidYMid meet">
<style type="text/css">
	.st0{fill:#FFFFFF;}
</style>
 <g>
   <path class="st0" stroke="null" id="svg_2" d="m3.849015,15.858786l3.235815,0c3.33387,0 5.68719,-2.54943 5.68719,-5.8833c0,-3.33387 -2.255265,-5.8833 -5.68719,-5.8833l-3.284842,0l0,11.7666l0.049027,0zm2.304292,-9.756472l0.39222,0c2.598457,0 3.9222,1.323742 3.9222,3.873172c0,2.304292 -1.078605,3.873172 -3.9222,3.873172l-0.39222,0l0,-7.746345l0,0zm21.915292,7.305097l0.882495,2.500402l2.451375,0l-4.461502,-12.060765l-1.76499,0l-4.559557,12.060765l2.402347,0l0.98055,-2.500402l4.069282,0l0,0zm-0.637357,-1.863045l-2.794567,0l1.274715,-4.265392l0.049027,0l1.470825,4.265392l0,0zm13.384507,4.31442l2.304292,0l0,-7.942455l0.049027,0l6.177465,8.23662l1.666935,0l0,-12.011737l-2.304292,0l0,7.893427l-0.049027,0l-6.177465,-8.23662l-1.666935,0l0,12.060765l0,0zm23.729309,-11.717572l-2.304292,0l0,11.7666l2.304292,0l0,-11.7666l0,0zm17.895037,1.9611l0,-2.010127l-6.07941,0l0,11.7666l6.07941,0l0,-2.010127l-3.775117,0l0,-3.186787l3.628035,0l0,-2.010127l-3.628035,0l0,-2.598457l3.775117,0l0,0.049027zm13.972837,-1.9611l-2.304292,0l0,11.7666l5.540107,0l0,-2.010127l-3.235815,0l0,-9.756472l0,0zm24.660832,0l-2.402347,0l3.72609,12.011737l1.666935,0l2.206237,-7.697317l0.049027,0l2.35332,7.697317l1.666935,0l3.971227,-12.011737l-2.402347,0l-2.304292,7.991482l-0.049027,0l-2.451375,-8.187592l-1.37277,0l-2.35332,8.187592l-0.049027,0l-2.255265,-7.991482l0,0zm28.141784,1.9611l0,-2.010127l-6.07941,0l0,11.7666l6.07941,0l0,-2.010127l-3.775117,0l0,-3.186787l3.628035,0l0,-2.010127l-3.628035,0l0,-2.598457l3.775117,0l0,0.049027zm13.482562,-1.9611l-2.304292,0l0,11.7666l5.540107,0l0,-2.010127l-3.235815,0l0,-9.756472l0,0zm15.88491,0l-2.304292,0l0,11.7666l5.540107,0l0,-2.010127l-3.235815,0l0,-9.756472l0,0zm16.914487,0l-2.304292,0l0,11.7666l2.304292,0l0,-11.7666l0,0zm12.305902,11.717572l2.304292,0l0,-7.942455l0.049027,0l6.177465,8.23662l1.666935,0l0,-12.011737l-2.304292,0l0,7.893427l-0.049027,0l-6.177465,-8.23662l-1.666935,0l0,12.060765l0,0zm26.278739,-6.226492l0,1.863045l2.500402,0c-0.049027,1.421797 -1.225687,2.647485 -2.696512,2.647485c-2.206237,0 -3.33387,-2.15721 -3.33387,-4.11831c0,-1.9611 1.078605,-4.216365 3.284842,-4.216365c1.225687,0 2.206237,0.833467 2.696512,1.863045l2.010127,-1.078605c-0.882495,-1.814017 -2.647485,-2.794567 -4.657612,-2.794567c-3.52998,0 -5.736217,2.892622 -5.736217,6.226492c0,3.235815 2.15721,6.128437 5.589135,6.128437c3.628035,0 5.343997,-2.94165 5.343997,-6.27552l0,-0.294165l-5.000805,0l0,0.049027zm19.660027,-3.52998l2.35332,0l0,-2.010127l-7.010932,0l0,2.010127l2.35332,0l0,9.756472l2.304292,0l0,-9.756472l0,0zm17.159625,10.099665c3.431925,0 5.834272,-2.843595 5.834272,-6.226492c0,-3.284842 -2.402347,-6.177465 -5.834272,-6.177465s-5.834272,2.892622 -5.834272,6.177465c0,3.382897 2.402347,6.226492 5.834272,6.226492l0,0zm0,-10.148692c2.010127,0 3.431925,1.912072 3.431925,3.824145c0,1.76499 -1.519852,4.020255 -3.431925,4.020255c-1.9611,0 -3.431925,-2.255265 -3.431925,-4.020255c-0.049027,-1.863045 1.421797,-3.824145 3.431925,-3.824145l0,0zm15.10047,9.8055l2.304292,0l0,-7.942455l0.049027,0l6.177465,8.23662l1.666935,0l0,-12.011737l-2.304292,0l0,7.893427l-0.049027,0l-6.177465,-8.23662l-1.666935,0l0,12.060765l0,0z"/>
 </g>
</svg>